<svg xmlns="http://www.w3.org/2000/svg" viewBox="0 0 72 38" fill="currentColor" class="pointer-events-none w-14"><title>Alphi logo</title><path fill-rule="evenodd" clip-rule="evenodd" d="M34.7143 0.00166852H38.1958L31.5898 11.8657L29.1493 16.0928L24.0097 7.44335L25.2058 5.42153C27.1942 2.06185 30.8075 0 34.7126 0L34.7143 0.00166852ZM23.1406 8.94803L14.0625 24.6338H32.3505L28.5755 18.0962L23.1406 8.94803ZM44.1211 10.6162L59.7818 36.9515H69.1719L53.9315 10.6162H44.1211ZM34.0687 15.2921C34.8911 13.8691 36.4092 12.9917 38.0523 12.9917C39.6954 12.9917 41.2135 13.8691 42.0359 15.2921C42.8583 16.715 42.8583 18.4682 42.0359 19.8912C41.2135 21.3141 39.6954 22.1916 38.0523 22.1916C36.4092 22.1916 34.8911 21.3141 34.0687 19.8912C33.2463 18.4682 33.2463 16.715 34.0687 15.2921ZM38.0523 31.1179C38.1791 31.1179 38.3042 31.1229 38.4293 31.1279L41.2602 26.1535H13.1833L6.93272 36.9532H29.0876C30.6123 33.5168 34.0504 31.1196 38.0523 31.1196V31.1179ZM58.0135 36.9515H47.017V36.9498C45.7542 34.1056 43.1819 31.9737 40.0624 31.3231L47.2038 18.7735L58.0135 36.9515ZM34.8678 9.09984L39.934 0.00166979H41.4153C45.3572 0.00166979 49.0005 2.10356 50.9756 5.51495L53.0508 9.09984H34.8678Z" fill="inherit"></path><path fill-rule="evenodd" clip-rule="evenodd" d="M69.197 38.7231C69.9076 38.7231 70.5682 39.1051 70.9235 39.7206C71.2788 40.3345 71.2788 41.0985 70.9235 41.7141C70.5682 42.3297 69.9076 42.7117 69.197 42.7117C68.4863 42.7117 67.8257 42.3297 67.4704 41.7141C67.1151 41.0985 67.1151 40.3345 67.4704 39.7206C67.8257 39.1051 68.4863 38.7231 69.197 38.7231ZM67.4521 48.999V44.0245H70.9419V48.999H67.4521ZM18.2812 48.999H30.7174V46.0797H30.6173C29.4997 46.0947 26.4669 46.0947 24.6586 46.0947H21.8228V40.6531C21.8228 39.9725 21.8228 39.4804 21.8361 38.9783L21.8394 38.8766H18.2812V48.999ZM65.2818 40.6531V46.6619C65.2818 47.5944 65.2818 48.2683 65.2985 48.8955V48.9973H61.7436V48.8955C61.7536 48.4718 61.757 46.7937 61.757 45.9062H53.1459L53.1592 48.7988V48.8989V48.999H49.7061V48.8972C49.7195 48.2833 49.7195 47.6044 49.7195 46.6635V40.6531C49.7195 39.9725 49.7195 39.4804 49.7061 38.9783L49.7028 38.8766H53.261L53.2577 38.9783C53.2493 39.322 53.2443 39.8224 53.2443 41.8259V43.1304H61.757V40.6531C61.757 39.9725 61.757 39.4804 61.7436 38.9783L61.7403 38.8766H65.2985L65.2951 38.9783C65.2818 39.4938 65.2818 39.9559 65.2818 40.6531ZM44.5815 38.8799L32.5557 38.8749V48.999H36.0789V46.9855H44.5815C46.4699 46.9855 48.0046 45.4575 48.0046 43.5774V42.298C48.0046 40.4129 46.4682 38.8782 44.5815 38.8782V38.8799ZM44.4814 42.7917V43.1571C44.4814 43.6542 44.0761 44.0595 43.579 44.0595H36.0789V41.8893H43.579C44.0761 41.8893 44.4814 42.2946 44.4814 42.7917ZM6.20207 38.8048H10.7478L16.7599 48.999H13.1967L13.1683 48.9506L12.3042 47.486H4.64567L3.7532 48.999H0.190002L6.20207 38.8048ZM6.28381 44.7051H10.6644L8.47411 40.9918L6.28381 44.7051Z" fill="inherit"></path></svg>